<svg id="Capa_1" enable-background="new 0 0 512 512" height="512" viewBox="0 0 512 512" width="512" xmlns="http://www.w3.org/2000/svg"><g><g><g><g><circle cx="256" cy="267" fill="#8bc727" r="245"/></g></g><path d="m436.322 274.769c-4.084 95.937-83.397 172.731-180.322 172.731-99.528 0-180.5-80.972-180.5-180.5 0-61.252 30.676-115.467 77.464-148.114v-17.956c-55.464 34.538-92.464 96.06-92.464 166.07 0 107.799 87.701 195.5 195.5 195.5 105.196 0 191.237-83.521 195.332-187.731z" fill="#fff"/><path d="m355.127 157.106c-1.664 1.27-3.734 2.034-5.984 2.034h-64.098c-3.918 0-7.568 2.107-9.526 5.5l-15.668 27.137c-.804 1.392-2.244 2.223-3.851 2.223s-3.047-.831-3.851-2.224l-15.668-27.137c-1.958-3.393-5.608-5.5-9.526-5.5h-64.098c-2.25 0-4.32-.764-5.984-2.034-30.009 27.087-48.873 66.286-48.873 109.895 0 81.738 66.262 148 148 148s148-66.262 148-148c0-43.609-18.864-82.808-48.873-109.894z" fill="#26a6fe"/><path d="m148 267c0-42.009 17.506-79.924 45.618-106.86h-30.76c-2.547 0-4.885-.881-6.74-2.346-29.57 27.059-48.118 65.965-48.118 109.206 0 81.738 66.262 148 148 148 6.784 0 13.458-.466 20-1.35-72.278-9.765-128-71.696-128-146.65z" fill="#0593fc"/><g><path d="m349.143 0h-186.285c-6.017 0-10.894 4.877-10.894 10.894v138.352c0 6.016 4.877 10.894 10.894 10.894h64.098c3.573 0 6.874 1.906 8.66 5l15.668 27.137c2.097 3.631 7.338 3.631 9.434 0l15.668-27.137c1.786-3.094 5.088-5 8.66-5h64.097c6.017 0 10.894-4.877 10.894-10.894v-138.352c-.001-6.017-4.878-10.894-10.894-10.894z" fill="#fed402"/></g><g><path d="m183 149.246v-138.352c0-6.017 4.877-10.894 10.894-10.894h-31.036c-6.016 0-10.894 4.877-10.894 10.894v138.352c0 6.016 4.877 10.894 10.894 10.894h31.036c-6.017 0-10.894-4.878-10.894-10.894z" fill="#fac600"/></g><g><g><g><path d="m309.925 52.706h-107.85c-4.143 0-7.5-3.358-7.5-7.5s3.357-7.5 7.5-7.5h107.85c4.143 0 7.5 3.358 7.5 7.5s-3.358 7.5-7.5 7.5z" fill="#bb5d4c"/></g><g><path d="m309.925 87.57h-107.85c-4.143 0-7.5-3.358-7.5-7.5s3.357-7.5 7.5-7.5h107.85c4.143 0 7.5 3.358 7.5 7.5s-3.358 7.5-7.5 7.5z" fill="#bb5d4c"/></g><g><path d="m259 122.434h-56.925c-4.143 0-7.5-3.358-7.5-7.5s3.357-7.5 7.5-7.5h56.925c4.143 0 7.5 3.358 7.5 7.5s-3.357 7.5-7.5 7.5z" fill="#bb5d4c"/></g></g></g><g><g><path d="m248.791 332.479h-73.791c-3.102 0-5.884-1.909-6.999-4.804-1.114-2.895-.333-6.177 1.967-8.258l62.578-56.618c5.558-5.028 8.745-12.211 8.745-19.705 0-14.652-11.921-26.573-26.573-26.573h-5.646c-14.652 0-26.572 11.92-26.572 26.573v6.64c0 4.142-3.357 7.5-7.5 7.5s-7.5-3.358-7.5-7.5v-6.64c0-22.923 18.649-41.573 41.572-41.573h5.646c22.924 0 41.573 18.649 41.573 41.573 0 11.724-4.986 22.96-13.681 30.827l-48.142 43.557h54.322c4.143 0 7.5 3.358 7.5 7.5s-3.356 7.501-7.499 7.501z" fill="#fff"/></g><path d="m337 282.098h-.981l-.001-73.104c-.009-2.173-.956-4.324-2.776-5.799-3.218-2.607-7.941-2.114-10.549 1.104l-65.31 80.576c-1.821 2.247-2.188 5.34-.944 7.95 1.245 2.61 3.879 4.272 6.771 4.272h57.81v27.881c0 4.142 3.357 7.5 7.5 7.5s7.5-3.358 7.5-7.5v-27.881h.98c4.143 0 7.5-3.358 7.5-7.5s-3.357-7.499-7.5-7.499zm-15.981 0h-42.076l42.076-51.912z" fill="#fff"/></g></g><g><path d="m440.937 233.154-19.77 38.237c-1.032 1.997.417 4.378 2.665 4.378h39.54c2.248 0 3.697-2.381 2.665-4.378l-19.77-38.237c-1.118-2.163-4.212-2.163-5.33 0z" fill="#eaf6ff"/></g></g></svg>