<svg id="Capa_1" enable-background="new 0 0 512 512" height="512" viewBox="0 0 512 512" width="512" xmlns="http://www.w3.org/2000/svg"><g><g><path d="m68.156 130.227c8.135-12.096 17.5-23.495 28.038-34.034 39.131-39.129 90.086-62.129 144.806-65.691v-30.055c-62.739 3.601-121.22 29.735-166.019 74.533-12.418 12.418-23.392 25.895-32.862 40.215z" fill="#23305b"/><path d="m458.878 156.188c15.119 30.664 23.122 64.621 23.122 99.812s-8.003 69.147-23.122 99.811l26.055 15.042c17.703-35.199 27.067-74.306 27.067-114.853s-9.365-79.654-27.068-114.854z" fill="#b3ccff"/><path d="m271 30.502c54.721 3.562 105.676 26.562 144.806 65.692 10.538 10.539 19.903 21.938 28.038 34.034l26.037-15.032c-9.469-14.32-20.443-27.796-32.862-40.215-44.798-44.799-103.28-70.933-166.019-74.534z" fill="#eaf1ff"/><path d="m443.844 381.772c-8.135 12.096-17.5 23.495-28.038 34.034-39.131 39.13-90.086 62.129-144.806 65.692v30.055c62.739-3.602 121.221-29.735 166.02-74.534 12.418-12.418 23.392-25.895 32.862-40.215z" fill="#61729b"/><path d="m53.122 355.811c-15.119-30.664-23.122-64.62-23.122-99.811s8.003-69.147 23.122-99.811l-26.055-15.043c-17.702 35.2-27.067 74.307-27.067 114.854s9.365 79.654 27.067 114.853z" fill="#29376d"/><path d="m241 481.498c-54.72-3.563-105.675-26.561-144.806-65.692-10.538-10.538-19.903-21.938-28.038-34.034l-26.037 15.032c9.469 14.32 20.443 27.797 32.862 40.215 44.799 44.799 103.28 70.933 166.019 74.534z" fill="#47568c"/></g><g><path d="m389.35 122.65h-101.35l-32.333 148.13-10.334 59.886 10.334 58.684h133.683z" fill="#f0b967"/><path d="m288 270.78v-148.13h-32.333l-10.334 80.016 10.334 68.114z" fill="#f7d586"/><path d="m224 122.65h-101.35v266.7h133.017v-118.57z" fill="#ffce7a"/><path d="m224 122.65h31.667v148.13h-31.667z" fill="#f9e89c"/><path d="m288.747 301.43h63.239v30h-63.239z" fill="#e8945b"/></g></g></svg>