<svg id="Capa_1" enable-background="new 0 0 512 512" height="512" viewBox="0 0 512 512" width="512" xmlns="http://www.w3.org/2000/svg"><g><path d="m345.921 337.29-67.059 55.873h-22.862-22.863l-67.059-55.873c-67.829 18.903-135.078 81.813-135.078 159.71v15h91.516l18.64-15h114.844 105l28.484 15h91.516v-15c0-77.897-67.249-140.807-135.079-159.71z" fill="#ffb64c"/><path d="m389.484 512h91.516v-15c0-77.897-67.249-140.807-135.079-159.71l-67.059 55.873h-22.862v103.837h105z" fill="#ff9100"/><path d="m316 318.666v-47.666h-60-60v47.666c0 1.822-.337 3.563-.95 5.173l18.085 33.085 42.865 42.865 39.866-39.866 21.085-36.085c-.614-1.609-.951-3.35-.951-5.172z" fill="#fc9"/><path d="m316.95 323.839c-.613-1.609-.95-3.351-.95-5.173v-47.666h-60v128.789l39.866-39.866z" fill="#ffaa80"/><path d="m256 0c-91.126 0-165 33.578-165 75 0 23.289 23.357 44.099 60 57.856h105 105c36.643-13.757 60-34.567 60-57.856 0-41.422-73.874-75-165-75z" fill="#ffb64c"/><path d="m421 75c0-41.422-73.874-75-165-75v132.856h105c36.643-13.757 60-34.567 60-57.856z" fill="#ff9100"/><path d="m256 132.856h-105v93.144c0 4.081.749 7.958 1.205 11.92h103.795l103.795.002c.456-3.962 1.205-7.839 1.205-11.922v-93.144z" fill="#ffe1ba"/><path d="m361 226v-93.144h-105v105.064l103.795.002c.456-3.962 1.205-7.839 1.205-11.922z" fill="#fc9"/><path d="m256 211c-42.557 0-69.316 16.489-103.795 26.92 6.553 56.962 53.846 93.08 103.795 93.08 49.7 0 97.213-35.863 103.795-93.078-34.111-10.322-61.214-26.922-103.795-26.922z" fill="#fff5f5"/><path d="m359.795 237.922c-34.111-10.322-61.214-26.922-103.795-26.922v120c49.7 0 97.213-35.863 103.795-93.078z" fill="#efe2dd"/><path d="m256 90h-105v42.856c28.53 10.71 65.11 17.144 105 17.144s76.47-6.434 105-17.144v-42.856z" fill="#404080"/><path d="m361 90h-105v60c39.89 0 76.47-6.434 105-17.144z" fill="#282866"/><g><path d="m271 45h30v30h-30z" fill="#282866"/></g><g><path d="m211 45h30v30h-30z" fill="#404080"/></g><g><path d="m241 15h30v30h-30z" fill="#404080"/></g><path d="m256 15h15v30h-15z" fill="#282866"/><path d="m329.066 333.388c-5.784-.992-10.252-4.662-12.116-9.549l-60.95 60.95-60.95-60.95c-1.864 4.887-6.332 8.557-12.116 9.549-5.598.959-11.226 2.333-16.855 3.902l89.921 89.921 89.921-89.921c-5.628-1.57-11.257-2.943-16.855-3.902z" fill="#fff5f5"/><path d="m329.066 333.388c-5.784-.992-10.252-4.662-12.116-9.549l-60.95 60.95v42.422l89.921-89.921c-5.628-1.57-11.257-2.943-16.855-3.902z" fill="#efe2dd"/><path d="m256 391c-69.307 0-125.911 53.685-133.484 121h133.484 133.484c-7.573-67.315-64.177-121-133.484-121zm-15 91h-79.303c14.804-30.855 44.132-54.386 79.303-59.484zm30-59.484c35.171 5.098 64.499 28.629 79.303 59.484h-79.303z" fill="#404080"/><path d="m256 391v121h133.484c-7.573-67.315-64.177-121-133.484-121zm15 31.516c35.171 5.098 64.499 28.629 79.303 59.484h-79.303z" fill="#282866"/></g></svg>